<svg width="398" height="398" viewBox="0 0 398 398" fill="none" xmlns="http://www.w3.org/2000/svg">
<rect x="7.72496" y="7.7252" width="382.55" height="382.55" rx="191.275" fill="white"/>
<rect x="7.72496" y="7.7252" width="382.55" height="382.55" rx="191.275" stroke="#39996B" stroke-width="13.866"/>
<path d="M192.85 158.519C187.114 170.643 179.143 201.306 169.663 211.555C185.804 213.732 198.174 190.594 200.408 184.14C207.326 164.156 214.03 147.588 219.624 136.742C212.322 141.61 198.487 146.606 192.85 158.519Z" fill="#39996B"/>
<path d="M171.841 123.419C154.829 144.633 148.996 199.427 147.629 223.596C178.118 216.294 182.346 159.416 195.668 146.862C210.785 134.948 244.725 118.805 252.547 115.732C259.721 112.914 261.002 118.935 256.902 121.625L226.926 141.225C204.764 159.16 245.846 159.705 261.346 154.197C275.31 149.235 298.997 136.357 314.165 103.562C329.332 70.7678 314.934 35.838 305.966 17.2202C301.098 39.8947 277.527 56.292 256.902 69.743C234.74 81.9129 188.853 102.205 171.841 123.419Z" fill="#39996B"/>
<path d="M205.397 239.379C211.132 227.256 219.104 196.592 228.583 186.344C212.442 184.166 200.072 207.305 197.838 213.758C190.921 233.742 184.217 250.311 178.623 261.157C185.925 256.289 199.76 251.293 205.397 239.379Z" fill="#39996B"/>
<path d="M226.406 274.48C243.418 253.266 249.251 198.471 250.618 174.302C220.129 181.604 215.901 238.482 202.579 251.037C187.462 262.95 153.523 279.093 145.7 282.166C138.526 284.984 137.245 278.963 141.345 276.273L171.321 256.673C193.483 238.739 152.401 238.193 136.901 243.702C122.937 248.664 99.2497 261.541 84.0821 294.336C68.9146 327.131 83.3135 362.06 92.2808 380.678C97.1488 358.004 120.72 341.606 141.345 328.155C163.507 315.986 209.394 295.694 226.406 274.48Z" fill="#39996B"/>
</svg>
