<svg width="193" height="49" viewBox="0 0 193 49" fill="none" xmlns="http://www.w3.org/2000/svg">
<rect x="1.15379" y="1.15379" width="46.6924" height="46.6924" rx="23.3462" stroke="white" stroke-width="1.69243"/>
<path d="M23.7495 19.559C23.0494 21.0387 22.0765 24.7814 20.9194 26.0322C22.8896 26.298 24.3994 23.4738 24.672 22.6861C25.5164 20.247 26.3347 18.2247 27.0174 16.9009C26.1262 17.495 24.4375 18.1048 23.7495 19.559Z" fill="white"/>
<path d="M21.1852 15.2746C19.1087 17.8639 18.3968 24.5519 18.23 27.5019C21.9513 26.6106 22.4673 19.6683 24.0934 18.136C25.9385 16.6819 30.081 14.7116 31.0357 14.3365C31.9114 13.9925 32.0677 14.7274 31.5674 15.0557L27.9086 17.448C25.2036 19.637 30.2178 19.7036 32.1098 19.0313C33.8141 18.4256 36.7053 16.8538 38.5566 12.8511C40.4079 8.84829 38.6504 4.58491 37.5559 2.3125C36.9617 5.08005 34.0847 7.08144 31.5674 8.7232C28.8624 10.2086 23.2616 12.6853 21.1852 15.2746Z" fill="white"/>
<path d="M25.2807 29.4283C25.9808 27.9486 26.9538 24.206 28.1108 22.9551C26.1407 22.6893 24.6309 25.5135 24.3582 26.3012C23.5139 28.7404 22.6956 30.7626 22.0129 32.0864C22.9041 31.4923 24.5928 30.8825 25.2807 29.4283Z" fill="white"/>
<path d="M27.8451 33.7127C29.9216 31.1234 30.6335 24.4354 30.8003 21.4854C27.079 22.3767 26.563 29.319 24.9368 30.8513C23.0918 32.3055 18.9493 34.2757 17.9945 34.6508C17.1189 34.9948 16.9626 34.2599 17.4629 33.9316L21.1217 31.5393C23.8267 29.3503 18.8124 29.2837 16.9205 29.956C15.2162 30.5617 12.325 32.1335 10.4737 36.1362C8.62239 40.139 10.3799 44.4024 11.4744 46.6748C12.0685 43.9073 14.9455 41.9059 17.4629 40.2641C20.1679 38.7787 25.7687 36.302 27.8451 33.7127Z" fill="white"/>
<path d="M66.8781 35.4092C64.3063 35.4092 62.2605 34.7077 60.7408 33.3049C59.2211 31.8826 58.4613 29.8564 58.4613 27.2261V22.3163C58.4613 19.686 59.2211 17.6695 60.7408 16.2666C62.2605 14.8444 64.3063 14.1332 66.8781 14.1332C69.4499 14.1332 71.4957 14.8444 73.0154 16.2666C74.5351 17.6695 75.295 19.686 75.295 22.3163V27.2261C75.295 29.8564 74.5351 31.8826 73.0154 33.3049C71.4957 34.7077 69.4499 35.4092 66.8781 35.4092ZM66.8781 31.9606C68.3199 31.9606 69.4402 31.5417 70.239 30.7039C71.0378 29.8661 71.4372 28.7458 71.4372 27.343V22.1994C71.4372 20.7966 71.0378 19.6763 70.239 18.8385C69.4402 18.0007 68.3199 17.5818 66.8781 17.5818C65.4558 17.5818 64.3355 18.0007 63.5172 18.8385C62.7184 19.6763 62.319 20.7966 62.319 22.1994V27.343C62.319 28.7458 62.7184 29.8661 63.5172 30.7039C64.3355 31.5417 65.4558 31.9606 66.8781 31.9606ZM77.3343 35V20.5043H80.9583V22.4039H81.4843C81.7181 21.8974 82.1565 21.42 82.7995 20.9719C83.4424 20.5043 84.4166 20.2705 85.722 20.2705C86.852 20.2705 87.8359 20.5335 88.6737 21.0596C89.531 21.5662 90.1934 22.2773 90.661 23.193C91.1286 24.0893 91.3624 25.1414 91.3624 26.3493V35H87.6801V26.6416C87.6801 25.5505 87.4073 24.7322 86.8618 24.1867C86.3357 23.6411 85.5758 23.3684 84.5822 23.3684C83.4522 23.3684 82.5754 23.7483 81.9519 24.5082C81.3285 25.2485 81.0167 26.2909 81.0167 27.6353V35H77.3343ZM100.487 35.4092C99.0451 35.4092 97.7689 35.1072 96.6584 34.5032C95.5673 33.8797 94.71 33.0127 94.0865 31.9021C93.4826 30.7721 93.1806 29.4472 93.1806 27.9275V27.5768C93.1806 26.0571 93.4826 24.742 94.0865 23.6314C94.6905 22.5014 95.5381 21.6343 96.6291 21.0304C97.7202 20.4069 98.9866 20.0951 100.428 20.0951C101.851 20.0951 103.088 20.4166 104.14 21.0596C105.192 21.6831 106.01 22.5598 106.595 23.6898C107.179 24.8004 107.472 26.0961 107.472 27.5768V28.8335H96.9214C96.9604 29.8271 97.3305 30.6357 98.0319 31.2592C98.7334 31.8826 99.5906 32.1944 100.604 32.1944C101.636 32.1944 102.396 31.9703 102.883 31.5222C103.37 31.0741 103.741 30.5773 103.994 30.0317L107.004 31.6099C106.731 32.1164 106.332 32.6717 105.806 33.2757C105.299 33.8602 104.617 34.3668 103.76 34.7954C102.903 35.2046 101.812 35.4092 100.487 35.4092ZM96.9506 26.0863H103.731C103.653 25.2485 103.312 24.5763 102.708 24.0698C102.123 23.5632 101.354 23.3099 100.399 23.3099C99.4055 23.3099 98.6165 23.5632 98.0319 24.0698C97.4474 24.5763 97.087 25.2485 96.9506 26.0863ZM117.997 35.4092C116.692 35.4092 115.688 35.1851 114.987 34.737C114.285 34.2889 113.769 33.792 113.438 33.2465H112.912V35H109.288V14.5424H112.97V22.1701H113.496C113.711 21.8194 113.993 21.4882 114.344 21.1765C114.714 20.8647 115.191 20.6115 115.776 20.4166C116.38 20.2023 117.12 20.0951 117.997 20.0951C119.166 20.0951 120.247 20.3874 121.241 20.9719C122.235 21.5369 123.034 22.3747 123.638 23.4853C124.242 24.5958 124.544 25.9402 124.544 27.5183V27.986C124.544 29.5641 124.242 30.9085 123.638 32.019C123.034 33.1296 122.235 33.9771 121.241 34.5616C120.247 35.1266 119.166 35.4092 117.997 35.4092ZM116.887 32.1944C118.017 32.1944 118.962 31.8339 119.721 31.113C120.481 30.3727 120.861 29.3011 120.861 27.8983V27.606C120.861 26.2032 120.481 25.1414 119.721 24.4205C118.981 23.6801 118.036 23.3099 116.887 23.3099C115.757 23.3099 114.812 23.6801 114.052 24.4205C113.292 25.1414 112.912 26.2032 112.912 27.606V27.8983C112.912 29.3011 113.292 30.3727 114.052 31.113C114.812 31.8339 115.757 32.1944 116.887 32.1944ZM128.042 40.845V37.6303H135.932C136.478 37.6303 136.751 37.338 136.751 36.7535V33.1004H136.225C136.069 33.4316 135.825 33.7628 135.494 34.094C135.163 34.4252 134.715 34.698 134.15 34.9123C133.585 35.1266 132.864 35.2338 131.987 35.2338C130.857 35.2338 129.863 34.9805 129.006 34.4739C128.168 33.9479 127.516 33.227 127.048 32.3113C126.58 31.3956 126.347 30.3435 126.347 29.155V20.5043H130.029V28.8627C130.029 29.9538 130.292 30.7721 130.818 31.3176C131.364 31.8632 132.133 32.1359 133.127 32.1359C134.257 32.1359 135.134 31.7657 135.757 31.0254C136.381 30.2655 136.692 29.2134 136.692 27.8691V20.5043H140.375V37.5718C140.375 38.5655 140.082 39.3546 139.498 39.9391C138.913 40.543 138.134 40.845 137.16 40.845H128.042ZM150.843 35.4092C148.272 35.4092 146.226 34.7077 144.706 33.3049C143.186 31.8826 142.427 29.8564 142.427 27.2261V22.3163C142.427 19.686 143.186 17.6695 144.706 16.2666C146.226 14.8444 148.272 14.1332 150.843 14.1332C153.415 14.1332 155.461 14.8444 156.981 16.2666C158.5 17.6695 159.26 19.686 159.26 22.3163V27.2261C159.26 29.8564 158.5 31.8826 156.981 33.3049C155.461 34.7077 153.415 35.4092 150.843 35.4092ZM150.843 31.9606C152.285 31.9606 153.406 31.5417 154.204 30.7039C155.003 29.8661 155.403 28.7458 155.403 27.343V22.1994C155.403 20.7966 155.003 19.6763 154.204 18.8385C153.406 18.0007 152.285 17.5818 150.843 17.5818C149.421 17.5818 148.301 18.0007 147.483 18.8385C146.684 19.6763 146.284 20.7966 146.284 22.1994V27.343C146.284 28.7458 146.684 29.8661 147.483 30.7039C148.301 31.5417 149.421 31.9606 150.843 31.9606ZM161.3 35V20.5043H164.924V22.4039H165.45C165.683 21.8974 166.122 21.42 166.765 20.9719C167.408 20.5043 168.382 20.2705 169.687 20.2705C170.817 20.2705 171.801 20.5335 172.639 21.0596C173.496 21.5662 174.159 22.2773 174.626 23.193C175.094 24.0893 175.328 25.1414 175.328 26.3493V35H171.645V26.6416C171.645 25.5505 171.373 24.7322 170.827 24.1867C170.301 23.6411 169.541 23.3684 168.548 23.3684C167.418 23.3684 166.541 23.7483 165.917 24.5082C165.294 25.2485 164.982 26.2909 164.982 27.6353V35H161.3ZM184.452 35.4092C183.01 35.4092 181.734 35.1072 180.624 34.5032C179.533 33.8797 178.675 33.0127 178.052 31.9021C177.448 30.7721 177.146 29.4472 177.146 27.9275V27.5768C177.146 26.0571 177.448 24.742 178.052 23.6314C178.656 22.5014 179.503 21.6343 180.594 21.0304C181.686 20.4069 182.952 20.0951 184.394 20.0951C185.816 20.0951 187.053 20.4166 188.105 21.0596C189.157 21.6831 189.976 22.5598 190.56 23.6898C191.145 24.8004 191.437 26.0961 191.437 27.5768V28.8335H180.887C180.926 29.8271 181.296 30.6357 181.997 31.2592C182.699 31.8826 183.556 32.1944 184.569 32.1944C185.602 32.1944 186.362 31.9703 186.849 31.5222C187.336 31.0741 187.706 30.5773 187.959 30.0317L190.969 31.6099C190.697 32.1164 190.297 32.6717 189.771 33.2757C189.265 33.8602 188.583 34.3668 187.725 34.7954C186.868 35.2046 185.777 35.4092 184.452 35.4092ZM180.916 26.0863H187.696C187.618 25.2485 187.277 24.5763 186.673 24.0698C186.089 23.5632 185.319 23.3099 184.365 23.3099C183.371 23.3099 182.582 23.5632 181.997 24.0698C181.413 24.5763 181.052 25.2485 180.916 26.0863Z" fill="white"/>
</svg>
