<svg width="20" height="20" viewBox="0 0 20 20" fill="none" xmlns="http://www.w3.org/2000/svg">
<path fill-rule="evenodd" clip-rule="evenodd" d="M15.5886 4.41083C15.914 4.73626 15.914 5.2639 15.5886 5.58934L5.5886 15.5893C5.26317 15.9148 4.73553 15.9148 4.41009 15.5893C4.08466 15.2639 4.08466 14.7363 4.41009 14.4108L14.4101 4.41083C14.7355 4.08539 15.2632 4.08539 15.5886 4.41083Z" fill="#FFA30C"/>
<path fill-rule="evenodd" clip-rule="evenodd" d="M4.41009 4.41083C4.73553 4.08539 5.26317 4.08539 5.5886 4.41083L15.5886 14.4108C15.914 14.7363 15.914 15.2639 15.5886 15.5893C15.2632 15.9148 14.7355 15.9148 14.4101 15.5893L4.41009 5.58934C4.08466 5.2639 4.08466 4.73626 4.41009 4.41083Z" fill="#FFA30C"/>
</svg>
