<svg width="12" height="12" viewBox="0 0 12 12" fill="none" xmlns="http://www.w3.org/2000/svg">
<path d="M5.65478 0.507498L5.65505 0.507483C6.71113 0.449579 7.61688 0.639189 8.53622 1.10983C10.1112 1.92072 11.198 3.45226 11.4567 5.23574L11.4568 5.23646C11.5139 5.61723 11.5139 6.38764 11.4568 6.76841L11.4567 6.76906C11.2447 8.22547 10.4599 9.55659 9.31522 10.4021L9.31502 10.4022C8.53814 10.978 7.69412 11.3271 6.74145 11.4648C6.26396 11.533 5.36359 11.5051 4.90099 11.4072L4.9007 11.4071C3.82304 11.1811 2.92794 10.7084 2.16643 9.96617C1.97627 9.78026 1.86692 9.66546 1.80472 9.58346C1.74569 9.50564 1.74269 9.47489 1.74269 9.45482C1.74269 9.45299 1.74257 9.45274 1.74264 9.45254C1.74269 9.45236 1.74289 9.45223 1.74347 9.45101C1.74742 9.44259 1.75895 9.42309 1.7924 9.38259C1.85948 9.30137 1.9862 9.16894 2.22816 8.92129C2.37309 8.77354 2.51072 8.63592 2.61604 8.53305C2.6688 8.48152 2.71289 8.43925 2.7455 8.40897C2.76189 8.39376 2.7746 8.38229 2.78366 8.37447C2.78558 8.37281 2.78715 8.37147 2.78842 8.37041C2.79128 8.36802 2.79255 8.36704 2.79254 8.36703C2.79254 8.36702 2.79131 8.36793 2.78916 8.36933L5.65478 0.507498ZM5.65478 0.507498C4.46357 0.570626 3.31938 1.03995 2.35983 1.86164L2.3581 1.8631M5.65478 0.507498L2.3581 1.8631M2.3581 1.8631L2.19141 2.00153L2.0865 2.08866M2.3581 1.8631L2.0865 2.08866M2.0865 2.08866L1.9898 1.99249M2.0865 2.08866L1.9898 1.99249M1.9898 1.99249L1.47844 1.48396L1.47815 1.48367M1.9898 1.99249L1.47815 1.48367M1.47815 1.48367C1.33784 1.34335 1.20336 1.21309 1.10013 1.11613C1.04842 1.06757 1.00519 1.02797 0.97331 0.999862C0.957267 0.985718 0.945015 0.975298 0.936467 0.968386C0.935329 0.967465 0.934323 0.966662 0.933443 0.965967C0.89172 0.948538 0.821637 0.945172 0.738506 0.972177C0.652257 1.00019 0.578467 1.0528 0.538831 1.11132C0.538823 1.11134 0.538814 1.11135 0.538805 1.11136L0.499609 1.1693V2.93711V4.70491L0.538831 4.76289L0.538893 4.76285M1.47815 1.48367L0.538893 4.76285M0.538893 4.76285L0.541412 4.76683M0.538893 4.76285L0.541412 4.76683M0.541412 4.76683C0.546639 4.77511 0.563242 4.79464 0.591604 4.81832C0.618729 4.84097 0.647189 4.85955 0.668786 4.86992L0.668824 4.86984M0.541412 4.76683L0.668824 4.86984M0.668824 4.86984L0.673365 4.87221M0.668824 4.86984L0.673365 4.87221M0.673365 4.87221L0.765024 4.92012H2.47415L2.5652 4.92012C3.44738 4.92014 3.88164 4.92015 4.11298 4.90356C4.23378 4.89489 4.28016 4.88253 4.30123 4.87325C4.31466 4.86734 4.31909 4.86392 4.3547 4.82537C4.38307 4.7932 4.41271 4.73888 4.43244 4.67511C4.4526 4.60995 4.45678 4.55325 4.45091 4.51948L4.45086 4.51949M0.673365 4.87221L4.45086 4.51949M4.45086 4.51949L4.45029 4.51561M4.45086 4.51949L4.45029 4.51561M4.45029 4.51561C4.45026 4.51542 4.45023 4.51521 4.4502 4.51498C4.44941 4.50884 4.44653 4.4866 4.37331 4.3988C4.29774 4.30818 4.16572 4.16842 3.93136 3.92555L3.9308 3.92496M4.45029 4.51561L3.9308 3.92496M3.9308 3.92496C3.78183 3.7689 3.64599 3.62311 3.54705 3.51381C3.49773 3.45933 3.45679 3.41304 3.42778 3.37875C3.41349 3.36186 3.40073 3.34628 3.391 3.33338C3.38636 3.32724 3.38051 3.31922 3.37518 3.31066C3.37263 3.30657 3.36836 3.29944 3.36424 3.29052L3.36402 3.29006C3.36176 3.28524 3.34969 3.25954 3.34969 3.22528C3.34969 3.17566 3.37323 3.13962 3.3794 3.13018L3.37958 3.1299C3.38963 3.1145 3.40116 3.10104 3.41078 3.09061C3.4305 3.06924 3.45571 3.04621 3.48244 3.02343C3.53677 2.97714 3.61002 2.92124 3.69041 2.8638C3.85048 2.74942 4.0503 2.62073 4.20468 2.54123C6.49629 1.3414 9.26496 2.67652 9.82491 5.2358M3.9308 3.92496L9.82505 6.75996M9.82505 6.75996L9.82514 6.75951C9.91414 6.33827 9.91438 5.64436 9.82491 5.2358M9.82505 6.75996C9.52884 8.14131 8.57124 9.22897 7.24954 9.68422L7.24929 9.68431M9.82505 6.75996L7.24929 9.68431M9.82491 5.2358L9.67838 5.26789L9.82492 5.23583C9.82491 5.23582 9.82491 5.23581 9.82491 5.2358ZM7.24929 9.68431C6.82092 9.83101 6.46546 9.89016 5.99999 9.89016M7.24929 9.68431L5.99999 9.89016M2.97386 8.45406L2.97389 8.45408C3.37156 8.91271 3.7364 9.20793 4.20744 9.4523L2.97386 8.45406ZM2.97386 8.45406C2.94695 8.423 2.92692 8.40093 2.91076 8.38474M2.97386 8.45406L2.91076 8.38474M5.99999 9.89016C5.33182 9.89016 4.79958 9.76008 4.20755 9.45236L5.99999 9.89016ZM2.91076 8.38474C2.89452 8.36847 2.88536 8.36137 2.88072 8.35829M2.91076 8.38474L2.88072 8.35829M2.88072 8.35829C2.87974 8.35764 2.87907 8.35724 2.87867 8.35701M2.88072 8.35829L2.87867 8.35701M2.87867 8.35701C2.87834 8.35682 2.87818 8.35675 2.87817 8.35676C2.87816 8.35676 2.87857 8.35696 2.87921 8.35712C2.87922 8.35713 2.87906 8.35708 2.87867 8.35701ZM2.87867 8.35701C2.87738 8.35678 2.87353 8.35624 2.86513 8.35611L2.87867 8.35701Z" fill="#39996B" stroke="white" stroke-width="0.3"/>
</svg>
