<svg width="25" height="24" viewBox="0 0 25 24" fill="none" xmlns="http://www.w3.org/2000/svg">
<path d="M11.4447 10.9563C11.3841 10.9563 11.324 10.9453 11.2673 10.9239L0.800181 6.9364C0.705612 6.90053 0.624194 6.83674 0.56674 6.75349C0.509286 6.67025 0.478516 6.5715 0.478516 6.47036C0.478516 6.36922 0.509286 6.27047 0.56674 6.18723C0.624194 6.10399 0.705612 6.0402 0.800181 6.00433L11.2673 2.01686C11.3816 1.97355 11.5078 1.97355 11.6222 2.01686L22.0893 6.00433C22.1839 6.0402 22.2653 6.10399 22.3227 6.18723C22.3802 6.27047 22.4109 6.36922 22.4109 6.47036C22.4109 6.5715 22.3802 6.67025 22.3227 6.75349C22.2653 6.83674 22.1839 6.90053 22.0893 6.9364L11.6222 10.9239C11.5655 10.9453 11.5054 10.9563 11.4447 10.9563ZM2.37822 6.47036L11.4447 9.92451L20.5112 6.47036L11.4447 3.01622L2.37822 6.47036Z" fill="#39996B"/>
<path d="M11.4449 17.9344C11.3843 17.9344 11.3241 17.9234 11.2674 17.902L4.78779 15.4347C4.69335 15.3988 4.61207 15.3349 4.55474 15.2517C4.49742 15.1685 4.46674 15.0698 4.4668 14.9687V7.99062C4.4668 7.85843 4.51931 7.73165 4.61278 7.63818C4.70626 7.5447 4.83304 7.49219 4.96523 7.49219C5.09742 7.49219 5.2242 7.5447 5.31768 7.63818C5.41115 7.73165 5.46366 7.85843 5.46366 7.99062V14.6248L11.4449 16.9026L17.4261 14.6248V7.99062C17.4261 7.85843 17.4786 7.73165 17.5721 7.63818C17.6655 7.5447 17.7923 7.49219 17.9245 7.49219C18.0567 7.49219 18.1835 7.5447 18.277 7.63818C18.3704 7.73165 18.4229 7.85843 18.4229 7.99062V14.9687C18.423 15.0698 18.3923 15.1685 18.335 15.2517C18.2777 15.3349 18.1964 15.3988 18.102 15.4347L11.6223 17.902C11.5656 17.9234 11.5055 17.9344 11.4449 17.9344Z" fill="#39996B"/>
<path d="M2.97109 16.9382C2.8389 16.9382 2.71212 16.8857 2.61864 16.7922C2.52517 16.6988 2.47266 16.572 2.47266 16.4398V7.23073C2.47265 7.1063 2.51918 6.98637 2.60312 6.8945C2.68705 6.80264 2.8023 6.74549 2.92623 6.73429L11.3996 5.97468C11.5313 5.96278 11.6623 6.00368 11.7638 6.08836C11.8653 6.17305 11.929 6.2946 11.9409 6.42626C11.9528 6.55793 11.9119 6.68892 11.8272 6.79044C11.7425 6.89195 11.621 6.95566 11.4893 6.96756L3.46952 7.6873V16.4398C3.46952 16.572 3.41701 16.6988 3.32354 16.7922C3.23006 16.8857 3.10328 16.9382 2.97109 16.9382Z" fill="#39996B"/>
<path d="M3.96776 19.9269H1.97402C1.84183 19.9269 1.71505 19.8744 1.62157 19.7809C1.5281 19.6875 1.47559 19.5607 1.47559 19.4285V17.4348C1.47559 17.0382 1.63313 16.6578 1.91355 16.3774C2.19397 16.097 2.57431 15.9395 2.97089 15.9395C3.36747 15.9395 3.7478 16.097 4.02823 16.3774C4.30865 16.6578 4.46619 17.0382 4.46619 17.4348V19.4285C4.46619 19.5607 4.41368 19.6875 4.3202 19.7809C4.22673 19.8744 4.09995 19.9269 3.96776 19.9269ZM2.47245 18.9301H3.46932V17.4348C3.46932 17.3026 3.41681 17.1758 3.32333 17.0823C3.22986 16.9888 3.10308 16.9363 2.97089 16.9363C2.83869 16.9363 2.71192 16.9888 2.61844 17.0823C2.52497 17.1758 2.47245 17.3026 2.47245 17.4348V18.9301Z" fill="#39996B"/>
<rect x="11.5" y="10.4238" width="12" height="12" rx="6" fill="white"/>
<rect x="11.5" y="10.4238" width="12" height="12" rx="6" stroke="#39996B"/>
<path d="M19.815 15.3757H20.5547V15.9857H19.815V16.6343H20.5547V17.2443H19.815V19.2002H18.4807L17.3673 17.2443H16.5171V19.2002H15.1802V17.243H14.4443V16.633H15.1802V15.9845H14.4443V15.3745H15.1802V13.6484H16.5184L17.4983 15.3745H18.482V13.6484H19.8163V15.3757H19.815ZM16.5184 16.633H17.0218L16.6558 15.9845H16.5184V16.633ZM18.2149 16.633H18.482V15.9845H17.845L18.2149 16.633Z" fill="#39996B"/>
</svg>
