<svg width="70" height="70" viewBox="0 0 70 70" fill="none" xmlns="http://www.w3.org/2000/svg">
<rect width="70" height="70" rx="35" fill="#DFFFF0"/>
<path d="M51.8002 37.7975C51.2074 36.9792 50.8882 35.9946 50.8882 34.9841C50.8882 33.9737 51.2074 32.9891 51.8002 32.1708L53.015 30.4923C53.1636 30.2874 53.2613 30.0501 53.3002 29.8C53.3391 29.5499 53.3181 29.2941 53.2388 29.0537C53.1587 28.8158 53.0247 28.5997 52.8472 28.4222C52.6698 28.2448 52.4536 28.1107 52.2158 28.0307L50.2496 27.3913C49.2865 27.0806 48.4469 26.4719 47.8522 25.653C47.2575 24.8342 46.9383 23.8476 46.9407 22.8355V20.7575C46.9405 20.5052 46.8806 20.2565 46.7659 20.0318C46.6512 19.8071 46.4849 19.6128 46.2807 19.4646C46.0764 19.3165 45.84 19.2189 45.5908 19.1796C45.3416 19.1404 45.0866 19.1607 44.8467 19.2389L42.8646 19.8783C41.9023 20.1897 40.8662 20.1889 39.9044 19.8759C38.9426 19.563 38.1044 18.954 37.5096 18.136L36.2948 16.4575C36.1396 16.263 35.9427 16.1059 35.7185 15.998C35.4944 15.89 35.2488 15.834 35 15.834C34.7512 15.834 34.5056 15.89 34.2814 15.998C34.0573 16.1059 33.8603 16.263 33.7052 16.4575L32.4903 18.136C31.8955 18.954 31.0573 19.563 30.0955 19.8759C29.1338 20.1889 28.0977 20.1897 27.1354 19.8783L25.1532 19.2389C24.9134 19.1607 24.6584 19.1404 24.4092 19.1796C24.1599 19.2189 23.9235 19.3165 23.7193 19.4646C23.515 19.6128 23.3487 19.8071 23.234 20.0318C23.1193 20.2565 23.0594 20.5052 23.0592 20.7575V22.8355C23.0617 23.8476 22.7425 24.8342 22.1477 25.653C21.553 26.4719 20.7135 27.0806 19.7503 27.3913L17.7842 28.0307C17.5463 28.1107 17.3302 28.2448 17.1527 28.4222C16.9752 28.5997 16.8412 28.8158 16.7611 29.0537C16.6819 29.2941 16.6608 29.5499 16.6997 29.8C16.7386 30.0501 16.8364 30.2874 16.9849 30.4923L18.1998 32.1708C18.7926 32.9891 19.1117 33.9737 19.1117 34.9841C19.1117 35.9946 18.7926 36.9792 18.1998 37.7975L16.9849 39.4759C16.8364 39.6808 16.7386 39.9181 16.6997 40.1683C16.6608 40.4184 16.6819 40.6742 16.7611 40.9145C16.8412 41.1524 16.9752 41.3685 17.1527 41.546C17.3302 41.7235 17.5463 41.8575 17.7842 41.9376L19.7503 42.577C20.7135 42.8877 21.553 43.4964 22.1477 44.3152C22.7425 45.134 23.0617 46.1207 23.0592 47.1327V49.2107C23.0594 49.463 23.1193 49.7117 23.234 49.9364C23.3487 50.1611 23.515 50.3555 23.7193 50.5036C23.9235 50.6517 24.1599 50.7494 24.4092 50.7886C24.6584 50.8278 24.9134 50.8075 25.1532 50.7293L27.1194 50.0899C28.0837 49.7733 29.1237 49.7714 30.0892 50.0846C31.0546 50.3978 31.8955 51.0098 32.4903 51.8323L33.7052 53.5107C33.8544 53.7139 34.0494 53.8791 34.2743 53.993C34.4993 54.1069 34.7479 54.1662 35 54.1662C35.2521 54.1662 35.5007 54.1069 35.7256 53.993C35.9505 53.8791 36.1455 53.7139 36.2948 53.5107L37.5096 51.8323C38.1054 51.011 38.9463 50.3999 39.9115 50.0868C40.8766 49.7737 41.9161 49.7748 42.8806 50.0899L44.8467 50.7293C45.0866 50.8075 45.3416 50.8278 45.5908 50.7886C45.84 50.7494 46.0764 50.6517 46.2807 50.5036C46.4849 50.3555 46.6512 50.1611 46.7659 49.9364C46.8806 49.7117 46.9405 49.463 46.9407 49.2107V47.1327C46.9383 46.1207 47.2575 45.134 47.8522 44.3152C48.4469 43.4964 49.2865 42.8877 50.2496 42.577L52.2158 41.9376C52.4536 41.8575 52.6698 41.7235 52.8472 41.546C53.0247 41.3685 53.1587 41.1524 53.2388 40.9145C53.3181 40.6742 53.3391 40.4184 53.3002 40.1683C53.2613 39.9181 53.1636 39.6808 53.015 39.4759L51.8002 37.7975ZM42.5289 32.9173L34.5364 40.9097C34.2366 41.2094 33.8301 41.3778 33.4063 41.3778C32.9824 41.3778 32.5759 41.2094 32.2761 40.9097L27.4806 36.1143C27.328 35.9668 27.2062 35.7904 27.1224 35.5954C27.0386 35.4004 26.9945 35.1906 26.9927 34.9784C26.9909 34.7661 27.0313 34.5556 27.1117 34.3592C27.1921 34.1627 27.3107 33.9843 27.4608 33.8342C27.6109 33.6841 27.7894 33.5654 27.9858 33.485C28.1823 33.4046 28.3928 33.3642 28.605 33.366C28.8173 33.3679 29.027 33.412 29.2221 33.4958C29.4171 33.5795 29.5935 33.7013 29.7409 33.854L33.4015 37.5193L40.2638 30.657C40.5653 30.3658 40.9691 30.2047 41.3882 30.2083C41.8073 30.212 42.2082 30.3801 42.5046 30.6765C42.801 30.9728 42.9691 31.3738 42.9727 31.7929C42.9764 32.212 42.8153 32.6158 42.5241 32.9173H42.5289Z" fill="#39996B"/>
</svg>
