<svg width="20" height="21" viewBox="0 0 20 21" fill="none" xmlns="http://www.w3.org/2000/svg">
<path d="M18.7653 11.9597C18.456 11.5327 18.2895 11.019 18.2895 10.4918C18.2895 9.96455 18.456 9.45082 18.7653 9.02387L19.3992 8.14814C19.4767 8.0412 19.5277 7.91739 19.548 7.78689C19.5683 7.65639 19.5573 7.52293 19.5159 7.39751C19.4741 7.2734 19.4042 7.16063 19.3116 7.06803C19.219 6.97544 19.1063 6.90551 18.9822 6.86373L17.9563 6.53012C17.4538 6.36801 17.0157 6.05042 16.7054 5.62319C16.3951 5.19595 16.2286 4.68117 16.2298 4.15313V3.06889C16.2298 2.93725 16.1985 2.8075 16.1386 2.69026C16.0788 2.57302 15.992 2.47161 15.8855 2.39433C15.7789 2.31705 15.6555 2.26609 15.5255 2.24562C15.3955 2.22515 15.2624 2.23575 15.1373 2.27656L14.1031 2.61017C13.601 2.77264 13.0604 2.77221 12.5586 2.60893C12.0568 2.44565 11.6194 2.12789 11.3091 1.70108L10.6752 0.825349C10.5943 0.723855 10.4915 0.641901 10.3746 0.585575C10.2576 0.529249 10.1295 0.5 9.99964 0.5C9.86983 0.5 9.74169 0.529249 9.62473 0.585575C9.50777 0.641901 9.40501 0.723855 9.32408 0.825349L8.69022 1.70108C8.37987 2.12789 7.94253 2.44565 7.44071 2.60893C6.93889 2.77221 6.39829 2.77264 5.89621 2.61017L4.86202 2.27656C4.73686 2.23575 4.60383 2.22515 4.47379 2.24562C4.34375 2.26609 4.2204 2.31705 4.11383 2.39433C4.00727 2.47161 3.92051 2.57302 3.86065 2.69026C3.80079 2.8075 3.76953 2.93725 3.76944 3.06889V4.15313C3.77072 4.68117 3.60418 5.19595 3.29388 5.62319C2.98357 6.05042 2.54553 6.36801 2.04299 6.53012L1.01714 6.86373C0.893026 6.90551 0.780262 6.97544 0.687662 7.06803C0.595063 7.16063 0.525139 7.2734 0.483357 7.39751C0.441999 7.52293 0.431018 7.65639 0.451318 7.78689C0.471617 7.91739 0.522618 8.0412 0.600121 8.14814L1.23398 9.02387C1.54328 9.45082 1.70981 9.96455 1.70981 10.4918C1.70981 11.019 1.54328 11.5327 1.23398 11.9597L0.600121 12.8354C0.522618 12.9423 0.471617 13.0661 0.451318 13.1966C0.431018 13.3271 0.441999 13.4606 0.483357 13.586C0.525139 13.7101 0.595063 13.8229 0.687662 13.9155C0.780262 14.0081 0.893026 14.078 1.01714 14.1198L2.04299 14.4534C2.54553 14.6155 2.98357 14.9331 3.29388 15.3603C3.60418 15.7876 3.77072 16.3024 3.76944 16.8304V17.9146C3.76953 18.0463 3.80079 18.176 3.86065 18.2933C3.92051 18.4105 4.00727 18.5119 4.11383 18.5892C4.2204 18.6665 4.34375 18.7174 4.47379 18.7379C4.60383 18.7584 4.73686 18.7478 4.86202 18.707L5.88787 18.3734C6.39102 18.2081 6.93366 18.2072 7.4374 18.3706C7.94113 18.534 8.37987 18.8533 8.69022 19.2824L9.32408 20.1582C9.40195 20.2642 9.50368 20.3504 9.62104 20.4098C9.7384 20.4692 9.8681 20.5002 9.99964 20.5002C10.1312 20.5002 10.2609 20.4692 10.3782 20.4098C10.4956 20.3504 10.5973 20.2642 10.6752 20.1582L11.3091 19.2824C11.6199 18.8539 12.0587 18.5351 12.5623 18.3717C13.0658 18.2084 13.6082 18.2089 14.1114 18.3734L15.1373 18.707C15.2624 18.7478 15.3955 18.7584 15.5255 18.7379C15.6555 18.7174 15.7789 18.6665 15.8855 18.5892C15.992 18.5119 16.0788 18.4105 16.1386 18.2933C16.1985 18.176 16.2298 18.0463 16.2298 17.9146V16.8304C16.2286 16.3024 16.3951 15.7876 16.7054 15.3603C17.0157 14.9331 17.4538 14.6155 17.9563 14.4534L18.9822 14.1198C19.1063 14.078 19.219 14.0081 19.3116 13.9155C19.4042 13.8229 19.4741 13.7101 19.5159 13.586C19.5573 13.4606 19.5683 13.3271 19.548 13.1966C19.5277 13.0661 19.4767 12.9423 19.3992 12.8354L18.7653 11.9597ZM13.9279 9.41336L9.75777 13.5835C9.60137 13.7399 9.38927 13.8277 9.16812 13.8277C8.94696 13.8277 8.73486 13.7399 8.57845 13.5835L6.07636 11.0814C5.99671 11.0045 5.93317 10.9125 5.88946 10.8107C5.84575 10.7089 5.82274 10.5995 5.82178 10.4888C5.82081 10.378 5.84192 10.2682 5.88385 10.1657C5.92579 10.0632 5.98772 9.97007 6.06603 9.89176C6.14434 9.81346 6.23746 9.75153 6.33996 9.70959C6.44246 9.66765 6.55228 9.64655 6.66302 9.64751C6.77376 9.64848 6.88321 9.67148 6.98496 9.71519C7.08672 9.75891 7.17875 9.82244 7.25568 9.9021L9.16561 11.8145L12.7461 8.23404C12.9034 8.08212 13.1141 7.99805 13.3328 7.99995C13.5514 8.00185 13.7606 8.08957 13.9153 8.2442C14.0699 8.39884 14.1576 8.60802 14.1595 8.8267C14.1614 9.04538 14.0774 9.25606 13.9254 9.41336H13.9279Z" fill="#39996B"/>
</svg>
