<svg width="1450" height="368" viewBox="0 0 1450 368" fill="none" xmlns="http://www.w3.org/2000/svg">
<rect x="6.66454" y="6.98613" width="353.711" height="353.711" rx="176.856" fill="white"/>
<rect x="6.66454" y="6.98613" width="353.711" height="353.711" rx="176.856" stroke="#39996B" stroke-width="12.8207"/>
<path d="M177.835 146.412C172.531 157.622 165.161 185.974 156.396 195.449C171.32 197.463 182.758 176.069 184.823 170.102C191.219 151.624 197.418 136.305 202.59 126.276C195.839 130.777 183.046 135.397 177.835 146.412Z" fill="#39996B"/>
<path d="M158.41 113.958C142.68 133.573 137.287 184.236 136.023 206.583C164.213 199.832 168.122 147.241 180.441 135.634C194.417 124.618 225.799 109.692 233.031 106.851C239.664 104.245 240.849 109.812 237.058 112.299L209.342 130.422C188.85 147.004 226.835 147.509 241.167 142.416C254.078 137.828 275.98 125.921 290.004 95.5984C304.028 65.276 290.715 32.9794 282.424 15.7651C277.923 36.7303 256.128 51.8915 237.058 64.3284C216.567 75.5809 174.139 94.3429 158.41 113.958Z" fill="#39996B"/>
<path d="M189.436 221.176C194.739 209.967 202.109 181.615 210.875 172.139C195.95 170.126 184.513 191.52 182.447 197.487C176.051 215.965 169.852 231.284 164.68 241.312C171.432 236.812 184.224 232.192 189.436 221.176Z" fill="#39996B"/>
<path d="M208.861 253.631C224.591 234.016 229.984 183.353 231.247 161.006C203.057 167.757 199.148 220.348 186.83 231.955C172.853 242.971 141.472 257.897 134.239 260.738C127.606 263.344 126.422 257.777 130.212 255.289L157.929 237.167C178.42 220.584 140.435 220.08 126.103 225.173C113.192 229.761 91.2904 241.668 77.2663 271.99C63.2422 302.313 76.5556 334.609 84.8469 351.824C89.3479 330.859 111.142 315.697 130.212 303.26C150.703 292.008 193.131 273.246 208.861 253.631Z" fill="#39996B"/>
<path d="M519.792 261.865C500.791 261.865 485.677 256.683 474.449 246.318C463.221 235.81 457.607 220.84 457.607 201.407V165.132C457.607 145.7 463.221 130.801 474.449 120.437C485.677 109.929 500.791 104.675 519.792 104.675C538.793 104.675 553.908 109.929 565.136 120.437C576.364 130.801 581.977 145.7 581.977 165.132V201.407C581.977 220.84 576.364 235.81 565.136 246.318C553.908 256.683 538.793 261.865 519.792 261.865ZM519.792 236.386C530.444 236.386 538.721 233.291 544.623 227.101C550.525 220.912 553.476 212.635 553.476 202.271V164.269C553.476 153.904 550.525 145.628 544.623 139.438C538.721 133.248 530.444 130.153 519.792 130.153C509.284 130.153 501.007 133.248 494.962 139.438C489.06 145.628 486.109 153.904 486.109 164.269V202.271C486.109 212.635 489.06 220.912 494.962 227.101C501.007 233.291 509.284 236.386 519.792 236.386ZM597.045 258.842V151.745H623.819V165.78H627.705C629.433 162.037 632.672 158.511 637.422 155.2C642.172 151.745 649.369 150.018 659.014 150.018C667.363 150.018 674.632 151.961 680.822 155.848C687.155 159.59 692.05 164.844 695.504 171.61C698.959 178.232 700.686 186.005 700.686 194.929V258.842H673.48V197.089C673.48 189.028 671.465 182.982 667.435 178.951C663.548 174.921 657.934 172.905 650.593 172.905C642.244 172.905 635.766 175.712 631.16 181.326C626.554 186.796 624.251 194.498 624.251 204.43V258.842H597.045ZM768.099 261.865C757.447 261.865 748.019 259.634 739.814 255.171C731.753 250.565 725.419 244.159 720.813 235.954C716.35 227.605 714.119 217.817 714.119 206.589V203.998C714.119 192.77 716.35 183.054 720.813 174.849C725.275 166.5 731.537 160.094 739.598 155.632C747.659 151.026 757.015 148.722 767.667 148.722C778.175 148.722 787.316 151.098 795.089 155.848C802.862 160.454 808.908 166.932 813.227 175.281C817.545 183.486 819.704 193.058 819.704 203.998V213.283H741.757C742.045 220.624 744.78 226.598 749.962 231.204C755.144 235.81 761.478 238.113 768.963 238.113C776.592 238.113 782.206 236.458 785.805 233.147C789.403 229.836 792.138 226.166 794.01 222.135L816.249 233.795C814.234 237.538 811.283 241.64 807.397 246.102C803.654 250.421 798.616 254.164 792.282 257.33C785.949 260.353 777.888 261.865 768.099 261.865ZM741.973 192.986H792.066C791.491 186.796 788.971 181.83 784.509 178.088C780.191 174.345 774.505 172.474 767.451 172.474C760.11 172.474 754.28 174.345 749.962 178.088C745.643 181.83 742.98 186.796 741.973 192.986ZM897.468 261.865C887.823 261.865 880.41 260.209 875.228 256.899C870.046 253.588 866.231 249.917 863.784 245.887H859.897V258.842H833.123V107.698H860.329V164.053H864.216C865.799 161.462 867.886 159.015 870.477 156.711C873.212 154.408 876.739 152.537 881.058 151.098C885.52 149.514 890.99 148.722 897.468 148.722C906.104 148.722 914.093 150.882 921.435 155.2C928.776 159.374 934.678 165.564 939.14 173.769C943.602 181.974 945.834 191.906 945.834 203.566V207.021C945.834 218.681 943.602 228.613 939.14 236.818C934.678 245.023 928.776 251.285 921.435 255.603C914.093 259.777 906.104 261.865 897.468 261.865ZM889.263 238.113C897.611 238.113 904.593 235.45 910.207 230.124C915.821 224.654 918.628 216.737 918.628 206.373V204.214C918.628 193.85 915.821 186.005 910.207 180.679C904.737 175.209 897.755 172.474 889.263 172.474C880.914 172.474 873.932 175.209 868.318 180.679C862.704 186.005 859.897 193.85 859.897 204.214V206.373C859.897 216.737 862.704 224.654 868.318 230.124C873.932 235.45 880.914 238.113 889.263 238.113ZM971.678 302.026V278.275H1029.98C1034.01 278.275 1036.02 276.115 1036.02 271.797V244.807H1032.14C1030.98 247.254 1029.19 249.701 1026.74 252.148C1024.29 254.595 1020.98 256.611 1016.81 258.194C1012.63 259.777 1007.31 260.569 1000.83 260.569C992.479 260.569 985.137 258.698 978.804 254.955C972.614 251.069 967.792 245.743 964.337 238.977C960.882 232.212 959.155 224.438 959.155 215.658V151.745H986.361V213.499C986.361 221.56 988.304 227.605 992.191 231.636C996.221 235.666 1001.91 237.682 1009.25 237.682C1017.6 237.682 1024.08 234.947 1028.68 229.477C1033.29 223.863 1035.59 216.09 1035.59 206.157V151.745H1062.8V277.843C1062.8 285.184 1060.64 291.014 1056.32 295.332C1052 299.795 1046.24 302.026 1039.05 302.026H971.678ZM1140.14 261.865C1121.14 261.865 1106.03 256.683 1094.8 246.318C1083.57 235.81 1077.96 220.84 1077.96 201.407V165.132C1077.96 145.7 1083.57 130.801 1094.8 120.437C1106.03 109.929 1121.14 104.675 1140.14 104.675C1159.14 104.675 1174.26 109.929 1185.49 120.437C1196.71 130.801 1202.33 145.7 1202.33 165.132V201.407C1202.33 220.84 1196.71 235.81 1185.49 246.318C1174.26 256.683 1159.14 261.865 1140.14 261.865ZM1140.14 236.386C1150.79 236.386 1159.07 233.291 1164.97 227.101C1170.87 220.912 1173.83 212.635 1173.83 202.271V164.269C1173.83 153.904 1170.87 145.628 1164.97 139.438C1159.07 133.248 1150.79 130.153 1140.14 130.153C1129.63 130.153 1121.36 133.248 1115.31 139.438C1109.41 145.628 1106.46 153.904 1106.46 164.269V202.271C1106.46 212.635 1109.41 220.912 1115.31 227.101C1121.36 233.291 1129.63 236.386 1140.14 236.386ZM1217.39 258.842V151.745H1244.17V165.78H1248.05C1249.78 162.037 1253.02 158.511 1257.77 155.2C1262.52 151.745 1269.72 150.018 1279.36 150.018C1287.71 150.018 1294.98 151.961 1301.17 155.848C1307.5 159.59 1312.4 164.844 1315.85 171.61C1319.31 178.232 1321.04 186.005 1321.04 194.929V258.842H1293.83V197.089C1293.83 189.028 1291.81 182.982 1287.78 178.951C1283.9 174.921 1278.28 172.905 1270.94 172.905C1262.59 172.905 1256.12 175.712 1251.51 181.326C1246.9 186.796 1244.6 194.498 1244.6 204.43V258.842H1217.39ZM1388.45 261.865C1377.8 261.865 1368.37 259.634 1360.16 255.171C1352.1 250.565 1345.77 244.159 1341.16 235.954C1336.7 227.605 1334.47 217.817 1334.47 206.589V203.998C1334.47 192.77 1336.7 183.054 1341.16 174.849C1345.62 166.5 1351.89 160.094 1359.95 155.632C1368.01 151.026 1377.36 148.722 1388.02 148.722C1398.52 148.722 1407.67 151.098 1415.44 155.848C1423.21 160.454 1429.26 166.932 1433.58 175.281C1437.89 183.486 1440.05 193.058 1440.05 203.998V213.283H1362.11C1362.39 220.624 1365.13 226.598 1370.31 231.204C1375.49 235.81 1381.83 238.113 1389.31 238.113C1396.94 238.113 1402.56 236.458 1406.15 233.147C1409.75 229.836 1412.49 226.166 1414.36 222.135L1436.6 233.795C1434.58 237.538 1431.63 241.64 1427.75 246.102C1424 250.421 1418.97 254.164 1412.63 257.33C1406.3 260.353 1398.24 261.865 1388.45 261.865ZM1362.32 192.986H1412.42C1411.84 186.796 1409.32 181.83 1404.86 178.088C1400.54 174.345 1394.85 172.474 1387.8 172.474C1380.46 172.474 1374.63 174.345 1370.31 178.088C1365.99 181.83 1363.33 186.796 1362.32 192.986Z" fill="#39996B"/>
</svg>
