<svg width="1456" height="368" viewBox="0 0 1456 368" fill="none" xmlns="http://www.w3.org/2000/svg">
<rect x="6.66454" y="6.98613" width="353.711" height="353.711" rx="176.856" fill="white"/>
<rect x="6.66454" y="6.98613" width="353.711" height="353.711" rx="176.856" stroke="#39996B" stroke-width="12.8207"/>
<path d="M177.835 146.412C172.531 157.622 165.161 185.974 156.396 195.449C171.32 197.463 182.758 176.069 184.823 170.102C191.219 151.624 197.418 136.305 202.59 126.276C195.839 130.777 183.046 135.397 177.835 146.412Z" fill="#39996B"/>
<path d="M158.41 113.958C142.68 133.573 137.287 184.236 136.023 206.583C164.213 199.832 168.122 147.241 180.441 135.634C194.417 124.618 225.799 109.692 233.031 106.851C239.664 104.245 240.849 109.812 237.058 112.299L209.342 130.422C188.85 147.004 226.835 147.509 241.167 142.416C254.078 137.828 275.98 125.921 290.004 95.5984C304.028 65.276 290.715 32.9794 282.424 15.7651C277.923 36.7303 256.128 51.8915 237.058 64.3284C216.567 75.5809 174.139 94.3429 158.41 113.958Z" fill="#39996B"/>
<path d="M189.436 221.176C194.739 209.967 202.109 181.615 210.875 172.139C195.95 170.126 184.513 191.52 182.447 197.487C176.051 215.965 169.852 231.284 164.68 241.312C171.432 236.812 184.224 232.192 189.436 221.176Z" fill="#39996B"/>
<path d="M208.861 253.631C224.591 234.016 229.984 183.353 231.247 161.006C203.057 167.757 199.148 220.348 186.83 231.955C172.853 242.971 141.472 257.897 134.239 260.738C127.606 263.344 126.422 257.777 130.212 255.289L157.929 237.167C178.42 220.584 140.435 220.08 126.103 225.173C113.192 229.761 91.2904 241.668 77.2663 271.99C63.2422 302.313 76.5556 334.609 84.8469 351.824C89.3479 330.859 111.142 315.697 130.212 303.26C150.703 292.008 193.131 273.246 208.861 253.631Z" fill="#39996B"/>
<path d="M519.792 261.865C500.791 261.865 485.677 256.683 474.449 246.318C463.221 235.81 457.607 220.84 457.607 201.407V165.132C457.607 145.7 463.221 130.801 474.449 120.437C485.677 109.929 500.791 104.675 519.792 104.675C538.793 104.675 553.908 109.929 565.136 120.437C576.364 130.801 581.977 145.7 581.977 165.132V201.407C581.977 220.84 576.364 235.81 565.136 246.318C553.908 256.683 538.793 261.865 519.792 261.865ZM519.792 236.386C530.444 236.386 538.721 233.291 544.623 227.101C550.525 220.912 553.476 212.635 553.476 202.271V164.269C553.476 153.904 550.525 145.628 544.623 139.438C538.721 133.248 530.444 130.153 519.792 130.153C509.284 130.153 501.007 133.248 494.962 139.438C489.06 145.628 486.109 153.904 486.109 164.269V202.271C486.109 212.635 489.06 220.912 494.962 227.101C501.007 233.291 509.284 236.386 519.792 236.386ZM597.045 258.842V151.745H623.819V165.78H627.705C629.433 162.037 632.672 158.511 637.422 155.2C642.172 151.745 649.369 150.018 659.014 150.018C667.363 150.018 674.632 151.961 680.822 155.848C687.155 159.59 692.05 164.844 695.504 171.61C698.959 178.232 700.686 186.005 700.686 194.929V258.842H673.48V197.089C673.48 189.028 671.465 182.982 667.435 178.951C663.548 174.921 657.934 172.905 650.593 172.905C642.244 172.905 635.766 175.712 631.16 181.326C626.554 186.796 624.251 194.498 624.251 204.43V258.842H597.045ZM768.099 261.865C757.447 261.865 748.019 259.634 739.814 255.171C731.753 250.565 725.419 244.159 720.813 235.954C716.35 227.605 714.119 217.817 714.119 206.589V203.998C714.119 192.77 716.35 183.054 720.813 174.849C725.275 166.5 731.537 160.094 739.598 155.632C747.659 151.026 757.015 148.722 767.667 148.722C778.175 148.722 787.316 151.098 795.089 155.848C802.862 160.454 808.908 166.932 813.227 175.281C817.545 183.486 819.704 193.058 819.704 203.998V213.283H741.757C742.045 220.624 744.78 226.598 749.962 231.204C755.144 235.81 761.478 238.113 768.963 238.113C776.592 238.113 782.206 236.458 785.805 233.147C789.403 229.836 792.138 226.166 794.01 222.135L816.249 233.795C814.234 237.538 811.283 241.64 807.397 246.102C803.654 250.421 798.616 254.164 792.282 257.33C785.949 260.353 777.888 261.865 768.099 261.865ZM741.973 192.986H792.066C791.491 186.796 788.971 181.83 784.509 178.088C780.191 174.345 774.505 172.474 767.451 172.474C760.11 172.474 754.28 174.345 749.962 178.088C745.643 181.83 742.98 186.796 741.973 192.986ZM827.941 258.842V233.795H847.806V132.744H827.941V107.698H905.672C914.885 107.698 922.874 109.281 929.64 112.448C936.549 115.471 941.875 119.861 945.618 125.619C949.504 131.233 951.448 137.998 951.448 145.915V148.075C951.448 154.984 950.152 160.67 947.561 165.132C944.97 169.451 941.875 172.834 938.276 175.281C934.822 177.584 931.511 179.239 928.344 180.247V184.133C931.511 184.997 934.966 186.652 938.708 189.1C942.451 191.403 945.618 194.785 948.209 199.248C950.944 203.71 952.311 209.54 952.311 216.737V218.897C952.311 227.245 950.368 234.443 946.481 240.489C942.595 246.39 937.197 250.925 930.287 254.092C923.522 257.258 915.605 258.842 906.536 258.842H827.941ZM876.307 232.931H903.081C909.271 232.931 914.237 231.42 917.98 228.397C921.867 225.374 923.81 221.056 923.81 215.442V213.283C923.81 207.669 921.938 203.35 918.196 200.327C914.453 197.304 909.415 195.793 903.081 195.793H876.307V232.931ZM876.307 169.883H902.65C908.551 169.883 913.374 168.371 917.116 165.348C921.003 162.325 922.946 158.151 922.946 152.825V150.666C922.946 145.196 921.075 141.021 917.332 138.142C913.59 135.119 908.695 133.608 902.65 133.608H876.307V169.883ZM977.372 302.026V278.275H1035.67C1039.7 278.275 1041.72 276.115 1041.72 271.797V244.807H1037.83C1036.68 247.254 1034.88 249.701 1032.43 252.148C1029.98 254.595 1026.67 256.611 1022.5 258.194C1018.32 259.777 1013 260.569 1006.52 260.569C998.172 260.569 990.831 258.698 984.497 254.955C978.307 251.069 973.485 245.743 970.03 238.977C966.576 232.212 964.848 224.438 964.848 215.658V151.745H992.054V213.499C992.054 221.56 993.997 227.605 997.884 231.636C1001.91 235.666 1007.6 237.682 1014.94 237.682C1023.29 237.682 1029.77 234.947 1034.37 229.477C1038.98 223.863 1041.28 216.09 1041.28 206.157V151.745H1068.49V277.843C1068.49 285.184 1066.33 291.014 1062.01 295.332C1057.69 299.795 1051.94 302.026 1044.74 302.026H977.372ZM1145.83 261.865C1126.83 261.865 1111.72 256.683 1100.49 246.318C1089.26 235.81 1083.65 220.84 1083.65 201.407V165.132C1083.65 145.7 1089.26 130.801 1100.49 120.437C1111.72 109.929 1126.83 104.675 1145.83 104.675C1164.84 104.675 1179.95 109.929 1191.18 120.437C1202.41 130.801 1208.02 145.7 1208.02 165.132V201.407C1208.02 220.84 1202.41 235.81 1191.18 246.318C1179.95 256.683 1164.84 261.865 1145.83 261.865ZM1145.83 236.386C1156.49 236.386 1164.76 233.291 1170.67 227.101C1176.57 220.912 1179.52 212.635 1179.52 202.271V164.269C1179.52 153.904 1176.57 145.628 1170.67 139.438C1164.76 133.248 1156.49 130.153 1145.83 130.153C1135.33 130.153 1127.05 133.248 1121 139.438C1115.1 145.628 1112.15 153.904 1112.15 164.269V202.271C1112.15 212.635 1115.1 220.912 1121 227.101C1127.05 233.291 1135.33 236.386 1145.83 236.386ZM1223.09 258.842V151.745H1249.86V165.78H1253.75C1255.48 162.037 1258.71 158.511 1263.46 155.2C1268.21 151.745 1275.41 150.018 1285.06 150.018C1293.41 150.018 1300.67 151.961 1306.86 155.848C1313.2 159.59 1318.09 164.844 1321.55 171.61C1325 178.232 1326.73 186.005 1326.73 194.929V258.842H1299.52V197.089C1299.52 189.028 1297.51 182.982 1293.48 178.951C1289.59 174.921 1283.98 172.905 1276.64 172.905C1268.29 172.905 1261.81 175.712 1257.2 181.326C1252.6 186.796 1250.29 194.498 1250.29 204.43V258.842H1223.09ZM1394.14 261.865C1383.49 261.865 1374.06 259.634 1365.86 255.171C1357.8 250.565 1351.46 244.159 1346.86 235.954C1342.39 227.605 1340.16 217.817 1340.16 206.589V203.998C1340.16 192.77 1342.39 183.054 1346.86 174.849C1351.32 166.5 1357.58 160.094 1365.64 155.632C1373.7 151.026 1383.06 148.722 1393.71 148.722C1404.22 148.722 1413.36 151.098 1421.13 155.848C1428.9 160.454 1434.95 166.932 1439.27 175.281C1443.59 183.486 1445.75 193.058 1445.75 203.998V213.283H1367.8C1368.09 220.624 1370.82 226.598 1376 231.204C1381.19 235.81 1387.52 238.113 1395.01 238.113C1402.63 238.113 1408.25 236.458 1411.85 233.147C1415.45 229.836 1418.18 226.166 1420.05 222.135L1442.29 233.795C1440.28 237.538 1437.33 241.64 1433.44 246.102C1429.7 250.421 1424.66 254.164 1418.32 257.33C1411.99 260.353 1403.93 261.865 1394.14 261.865ZM1368.02 192.986H1418.11C1417.53 186.796 1415.01 181.83 1410.55 178.088C1406.23 174.345 1400.55 172.474 1393.49 172.474C1386.15 172.474 1380.32 174.345 1376 178.088C1371.69 181.83 1369.02 186.796 1368.02 192.986Z" fill="#39996B"/>
</svg>
